<svg viewBox="0 0 1116 527" version="1.1" xmlns="http://www.w3.org/2000/svg" xmlns:xlink="http://www.w3.org/1999/xlink" xml:space="preserve" xmlns:serif="http://www.serif.com/" style="fill-rule:evenodd;clip-rule:evenodd;stroke-linejoin:round;stroke-miterlimit:2;">
  <g>
    <path d="M640.623,156.298c-0,-22.114 -16.492,-39.012 -49.538,-50.85c-25.675,-8.714 -55.13,-13.087 -88.113,-13.087l-385.124,-0l0,342.706l385.124,0c32.327,0 61.063,-3.904 86.114,-11.556c34.326,-11.339 51.537,-27.487 51.537,-48.539c-0,-21.521 -17.211,-37.981 -51.537,-49.288c-25.675,-8.153 -54.411,-12.307 -86.114,-12.307l-315.876,0l-0,-91.611l315.876,-0c32.983,-0 62.438,-4.591 88.113,-13.868c33.046,-11.807 49.538,-29.017 49.538,-51.6Zm113.819,217.956c-0,22.52 -7.215,43.822 -21.739,63.843c-43.604,59.065 -126.064,88.582 -247.504,88.582l-485.199,-0l0,-525.929l485.199,-0c115.475,-0 196.31,27.955 242.537,83.896c17.804,22.614 26.706,46.758 26.706,72.433c-0,43.604 -23.707,80.304 -71.246,110.102c47.539,28.799 71.246,64.469 71.246,107.073Z" style="fill:#f00;fill-rule:nonzero;"/><path d="M1006.04,219.872c60.74,-0 109.936,-49.197 109.936,-109.936c0,-60.74 -49.196,-109.936 -109.936,-109.936c-60.739,0 -109.936,49.196 -109.936,109.936c0,60.739 49.197,109.936 109.936,109.936Zm0,-20.476c-49.471,0 -89.46,-39.989 -89.46,-89.46c0,-49.471 39.989,-89.46 89.46,-89.46c49.471,-0 89.461,39.989 89.461,89.46c-0,49.471 -39.99,89.46 -89.461,89.46Zm-37.24,-39.989l17.727,-0l-0,-36.416l27.896,-0l18.964,36.416l19.788,-0l-21.575,-40.264c9.895,-5.222 17.453,-15.528 17.453,-29.408c-0,-20.613 -16.353,-31.744 -31.607,-31.744l-48.646,0l-0,101.416Zm17.727,-50.296l-0,-37.24l25.56,-0c8.795,-0 17.727,5.084 17.727,17.864c-0,12.505 -8.795,19.376 -18.139,19.376l-25.148,0Z" style="fill:#f00;fill-rule:nonzero;"/>
  </g>
</svg>