<svg id="Ebene_1" xmlns="http://www.w3.org/2000/svg" viewBox="0 0 225.88 340.87">
  <defs>
    <style>
      .cls-1 {
        fill: #db911b;
      }
    </style>
  </defs><path class="cls-1" d="m224.59,243.21c-.55-3.94-.9-10.85-4.38-13.58-3.54-2.78-10.72-3.48-15.09-4.39-11.56-2.42-22.73-6.01-34.08-9.19-4.27-1.2-9.01-3.28-10.02,2.25-.97,5.33,0,11.79,0,17.21.11,0,.21,0,.32,0,0,10.55,1.29,23.23-5.29,32.21-6.91,9.42-18.42,8.75-28.59,6.04-11.45-3.06-21.8-7.42-32.79-11.79-19.45-7.74-44.23-16.41-57.01-34.11-13.66-18.92-12.2-45.87-12.08-68.04.03-5.68-.61-15.75,2.16-20.79,0-.02.02-.03.03-.04l97.08,11.83c3.52.68,7.08,1.25,10.49,1.28l74.48,9.08c4.76-48.98-13.07-102.76-13.07-102.76-3.64-11.45-8.68-22.87-15.57-32.75C166.47,4.55,144.07.06,119.73,0c-12.43-.03-24.09,1.94-36.3,4.17-11.5,2.11-24.34,4.52-34.72,9.89C29.69,23.89,14.76,31.85,10.86,59.95s-21,129.17-2.22,175.8c4.03,9.62,9.28,18.64,15.99,26.71,14.19,17.06,33.5,30.97,52.95,41.46,18.41,9.92,37.29,19.21,56.59,27.47,19.46,8.33,45.05,14.04,64.98,4.58,19.85-9.43,25.47-35.77,26.32-55.5.53-12.26.81-25.07-.88-37.25ZM30.63,93.39c.13-2.7.29-5.38.57-8.07.63-6.11,1.45-12.27,3.08-18.2,6.81-24.89,30.46-29.86,53.21-32.97,13.3-1.82,27.65-1.75,33.44-1.48,11.54.52,12.54,2.18,19.19,17.4,1.73,3.96,2.95,7.6,4.49,11.87.98,2.73,9.51,48.89,5.1,48.69-3.48-.16-117.11-4.08-119.29-7.57-1.06-1.7.13-7.78.22-9.66Z"/></svg>
