<svg width="22" height="22" viewBox="0 0 22 22" fill="none" xmlns="http://www.w3.org/2000/svg">
<path d="M21.2295 10.8936L20.6689 9.92291C20.5381 9.70411 20.2998 9.55961 20.0283 9.55571H12.418L13.6465 7.42881C13.7783 7.19341 13.7734 6.91701 13.6523 6.69541L13.6533 6.69631L13.0908 5.72171C13.0264 5.59671 12.9287 5.48931 12.7988 5.41411C12.6689 5.33891 12.5264 5.30771 12.3857 5.31351H11.2656C11.0107 5.31941 10.7666 5.45121 10.6289 5.68561L9.39939 7.81161L5.59669 1.22461V1.22661C5.45999 0.992214 5.21779 0.860414 4.96679 0.852614H3.83979C3.70019 0.845714 3.55759 0.877013 3.42679 0.954113C3.29789 1.02641 3.20019 1.13581 3.13379 1.25691L2.57319 2.22951C2.45209 2.45321 2.4443 2.73151 2.5771 2.96681L6.38179 9.55571H1.627C1.3545 9.55961 1.11719 9.70411 0.985394 9.92291L0.424795 10.8936C0.349595 11.0108 0.307595 11.1495 0.305695 11.3003C0.305695 11.4488 0.350594 11.5894 0.426794 11.7066L0.988295 12.6817H0.989294C1.12209 12.8946 1.3564 13.0391 1.627 13.0411V13.043H6.38179L2.57909 19.6329C2.44429 19.8672 2.45209 20.1465 2.57419 20.3672H2.57319L3.13379 21.3418C3.20019 21.4629 3.29789 21.5704 3.42679 21.6465C3.55759 21.7207 3.70019 21.752 3.83979 21.7461H4.96679H4.96579C5.21779 21.7383 5.45999 21.6055 5.59669 21.3731L9.39939 14.7871L10.6289 16.9141C10.7666 17.1465 11.0107 17.2793 11.2656 17.2852H12.3877C12.5264 17.293 12.668 17.2598 12.7988 17.1836C12.9287 17.1094 13.0264 17.0039 13.0918 16.877L13.6533 15.9043H13.6523C13.7734 15.6817 13.7783 15.4043 13.6465 15.17H13.6475L12.4199 13.043H20.0283V13.0411C20.2979 13.0391 20.5332 12.8946 20.666 12.6817L21.2275 11.7066C21.3037 11.5894 21.3486 11.4488 21.3486 11.3003C21.3486 11.1524 21.3037 11.0108 21.2295 10.8936Z" fill="#E30613"/>
</svg>
