<svg viewBox="0 0 288 227" fill="none" xmlns="http://www.w3.org/2000/svg">
<g clip-path="url(#clip0_6_24)">
<path d="M149.1 5.49294e-06C147.46 3.00001 160.92 8.10001 162.91 9.14001C165.44 10.46 168.18 12.31 170.8 13.32C172.74 14.07 175.3 13.78 177.08 14.91C178.91 16.07 180.34 18.73 178.52 20.77C176.92 22.57 172.32 21.51 170.3 21.43C162.68 21.13 155.06 20.79 147.44 20.71C142.02 20.65 110.67 24.69 110.2 18.25C109.91 14.29 120.31 11.69 123.28 10.03C126.16 8.41001 140.1 3.64001 140.1 -0.00999451H149.1V5.49294e-06Z" fill="#00468C"/>
<path d="M235.76 135.49C235.25 142.48 235.29 149.49 235.39 156.5C235.48 162.98 233.97 171.65 235.94 177.87C237.2 181.84 243.5 186.98 247.81 183.83C251.84 180.89 249.95 169.3 249.99 165.04C250.14 150.18 250.02 135.29 249.81 120.43C249.72 113.88 248.03 105.34 249.55 99C250.9 93.33 257.17 95.47 261.84 95.55C268.67 95.67 276.3 94.37 283.03 95.42C288.63 96.29 287.19 100.94 287.19 105.84C287.19 121.44 286.93 137.03 286.79 152.62C286.65 168.26 286.85 183.89 286.78 199.53C286.75 206.24 287.09 212.9 287.21 219.6C287.38 228.7 279.6 225.26 272.64 225.05C258.92 224.65 243.88 226.74 230.5 223.41C227.44 222.65 224.69 222.12 221.86 220.88C218.64 219.47 218.3 218.59 214.84 219.91C208.28 222.41 203.14 224.95 195.81 225.33C181.71 226.06 169.59 224.73 159.07 214.83C148.2 204.6 145.07 193.76 145.13 179.14C145.18 163.51 145.49 147.88 145.36 132.25C145.3 124.93 145.15 117.6 144.91 110.28C144.74 105.28 142.44 97.55 148.08 95.52C153.37 93.62 161.6 95.39 167.16 95.34C172.03 95.3 181.26 92.69 183.61 98.36C185.8 103.63 183.78 113.03 183.74 118.72C183.69 126.41 183.68 134.1 183.66 141.8C183.64 150.39 183.62 158.99 183.6 167.58C183.6 172.35 181.41 184.63 189.26 184.93C197.76 185.26 195.72 170.92 195.76 165.91C195.83 157.07 195.68 148.23 195.55 139.39C195.43 131.01 195.39 122.64 195.44 114.26C195.48 108.77 192.61 97.14 199.13 95.27C202.4 94.33 207.04 95.34 210.43 95.34C214.41 95.34 218.39 95.32 222.38 95.34C227.95 95.36 235.76 93.14 235.75 100.65C235.74 112.48 235.75 124.31 235.75 135.49H235.76ZM171.45 149.15H171.52C171.52 140.53 171.52 131.9 171.53 123.28C171.54 118.2 173.68 110.58 167.73 109.15C162.95 108 158.65 109.52 158.22 114.29C157.55 121.78 158.85 129.8 158.75 137.35C158.44 161.63 149.31 202.73 181.54 210.58C187.79 212.1 192.85 211.58 198.93 209.97C204.86 208.41 208.06 205.45 212.93 202.17C218.66 198.31 221.46 204.71 226.6 207.18C231.81 209.69 238.04 210.64 243.63 211.97C249.19 213.29 254.94 212.93 260.71 212.83C264.8 212.76 272.89 214.06 275.48 210.24C276.82 208.27 275.91 204.13 275.91 201.93C275.91 198.41 275.89 194.88 275.89 191.36C275.89 184.75 275.89 178.15 275.97 171.54C276.12 157.08 275.66 142.63 275.65 128.17C275.65 123.46 278.03 112.76 273.53 110.22C269.85 108.14 264.04 109.48 262.95 113.29C261.08 119.87 262.62 129.48 262.61 136.33C262.6 143.28 262.64 150.23 262.66 157.19C262.68 164.6 262.56 172.02 262.59 179.43C262.61 183.9 264.89 193.6 262.68 197.4C260.52 201.11 251.95 198.39 248.21 198.43C242.93 198.47 238.06 198.9 233.36 196.08C227.4 192.51 224.89 189.06 223.64 182.24C222.53 176.19 222.77 170.05 222.82 163.94C222.93 149.14 222.67 134.33 222.56 119.53C222.54 117.15 223.54 111.69 221.62 110.04C220.22 108.84 215.14 109.05 213.48 109.46C207.38 110.98 209.19 117.3 209.18 122.39C209.17 137.21 208.87 152.04 209.01 166.86C209.13 178.9 211.67 191.48 198.9 197.67C190 201.98 176.35 199.11 172.42 189C170.26 183.45 171.42 176.23 171.42 170.39C171.42 163.31 171.42 156.24 171.42 149.16L171.45 149.15Z" fill="#00468C"/>
<path d="M34.85 96.94C46.57 96.94 59.38 95.56 70.88 98.2C79.93 100.28 89 107.94 94.36 115.32C101.03 124.5 101.69 135.14 101.44 146.13C101.31 151.86 100.77 156.5 98.1 161.63C95.79 166.08 91.87 169.47 89.52 173.81C87.7 177.18 86.87 181.85 91.14 182.63C95.23 183.37 99.31 180.03 100.46 185.87C101.43 190.81 99.92 197.63 99.93 202.72C99.94 208.61 100.48 214.58 100.25 220.46C99.9 229.45 87.85 226.09 81.57 224.96C71.14 223.09 63.24 218.83 56.55 210.53C49.54 201.82 48.49 191.6 48.53 180.84C48.55 175.14 48.65 169.44 48.63 163.73C48.62 158.67 46.84 151.9 47.84 147.11C48.69 143.06 51.91 143.13 55.52 143.15C57.02 143.15 59.9 143.94 60.77 142.38C61.98 140.23 59.96 139.02 58.31 138.32C54.79 136.81 46.87 136.78 43.12 137.83C39.06 138.97 38.91 141.33 38.58 145.23C36.55 168.87 37.39 193.76 39.62 217.33C40.74 229.18 30.56 225.23 21.98 225.19C16.4 225.16 10.3 226.32 4.76001 225.59C0.250014 224.99 0.530014 222.86 0.560014 218.58C0.740014 191.29 1.02001 164.01 0.960014 136.71C0.940014 129.45 1.00001 122.18 0.850014 114.92C0.760014 110.83 -1.17999 102.22 1.09001 98.63C3.44001 94.92 10.26 96.84 13.95 96.89C20.92 96.98 27.88 96.79 34.85 96.94V96.94ZM13.67 161.26C13.67 161.26 13.68 161.26 13.69 161.26C13.69 173.04 13.7 184.83 13.69 196.61C13.69 199.59 12.04 208.13 14.73 210.17C18.12 212.75 24.88 210.57 26 206.95C27.42 202.39 26.05 195.22 26.18 190.47C26.33 185.03 26.64 179.59 26.68 174.15C26.77 162.97 27.15 151.34 26.46 140.18C25.95 131.85 22.67 123.45 33.98 123.42C42.91 123.4 52.62 122.66 61.46 124C78.24 126.54 81.13 146.73 67.99 156.25C65.25 158.23 62.22 158.96 61.05 162.52C59.82 166.25 60.97 171.89 61 175.8C61.07 184.28 61.07 191.37 66.11 198.52C68.78 202.3 79.75 214.56 85.8 210.19C87.47 208.98 87.79 202.78 86.95 200.88C85.66 197.94 82.1 197.87 79.6 196.27C72.9 191.99 73.59 184.57 73.5 177.44C73.45 173.11 72.33 169.95 75.01 166.33C77.17 163.4 80.17 161.28 82.4 158.41C93.51 144.06 88.18 125.57 74.16 115.84C66.24 110.35 57.36 111.62 48.1 111.58C38.23 111.53 27.53 110.39 17.72 111.53C14.05 111.96 14.02 112.2 13.67 115.76C13.16 121 13.67 126.55 13.67 131.81C13.67 141.62 13.67 151.43 13.67 161.24V161.26Z" fill="#00468C"/>
<path d="M49.5 53.39C69.03 52.12 88.88 53.25 108.45 53.07C128.14 52.89 147.84 53.36 167.54 53.35C187.48 53.34 207.43 53.2 227.37 53.52C235.41 53.65 245.43 52.2 252.76 55.68C261.4 59.77 269.45 65.01 278.09 69.1C280.15 70.07 286.05 71.36 284.76 74.59C283.66 77.36 277.9 76.28 276.09 76.15C266.26 75.43 256.49 75.26 246.63 75.39C226.98 75.66 207.33 75.25 187.67 75.52C148.58 76.05 109.45 75.52 70.35 75.59C59.26 75.61 48.16 75.64 37.07 75.69C31.55 75.71 26.02 75.68 20.49 75.77C16.74 75.83 9.18001 78.08 5.88001 75.91C1.36001 72.94 6.45001 71.33 9.10001 69.98C12.91 68.03 16.65 65.86 20.32 63.65C24.38 61.21 28.7 59.62 32.8 57.36C37.02 55.04 39.38 53.11 44.5 53.38C46.16 53.47 47.83 53.4 49.5 53.4V53.39Z" fill="#00468C"/>
<path d="M137.59 48.19C124.73 48.19 111.87 48.12 99.01 48.16C92.81 48.18 86.6 48.24 80.4 48.3C74.56 48.35 66.81 50.18 61.18 49.03C53.39 47.45 59.09 42.76 63.32 41.04C67.76 39.23 71.72 36.91 75.97 34.62C80.67 32.08 85.67 28.76 90.9 27.51C96.54 26.17 102.89 26.94 108.62 26.98C134.49 27.15 160.34 27.25 186.21 27.47C198.34 27.57 207.24 31.56 217.47 37.76C221.09 39.95 228.2 40.89 230.89 44.18C234.6 48.73 228.13 48.91 224.79 48.78C195.77 47.69 166.64 47.66 137.59 47.66C137.59 47.84 137.59 48.01 137.59 48.19V48.19Z" fill="#00468C"/>
<path d="M128.89 166.76C131.45 165.05 129.74 160.07 133.57 158.84C136.52 157.89 139.02 160.98 139.16 163.77C139.34 167.39 134.97 170.91 136.04 174.6C136.7 176.88 140.7 178.24 139.73 181.34C138.47 185.37 134 183.3 131.51 182.34C127.13 180.63 127.06 182.13 122.88 183.53C115.77 185.91 108.14 182.64 105.51 175.69C104.39 172.73 104.44 169.65 105.64 166.7C106.67 164.17 110.14 162.39 110.84 160.12C111.72 157.25 108.19 155.04 108.65 151.68C109.07 148.62 111.41 145.59 113.73 143.67C118.94 139.35 126.72 140.9 129.68 147.21C131.09 150.21 130.88 153.67 129.18 156.49C127.5 159.28 122.23 161.63 126.29 164.99C127.08 165.65 127.55 166.82 128.87 166.77L128.89 166.76ZM119.3 176.33C120.62 176.19 122.27 176.58 123.06 175.16C124.24 173.04 117.32 166.43 115.2 167.25C109.87 169.32 115.2 176.7 119.3 176.33V176.33ZM119.79 148.91C117.12 151.14 116.63 152.7 118.12 154.22C120.5 156.65 123.41 151.66 119.79 148.91Z" fill="#00468C"/>
</g>
<defs>
<clipPath id="clip0_6_24">
<rect width="287.36" height="226.51" fill="white"/>
</clipPath>
</defs>
</svg>
