<svg id="a" xmlns="http://www.w3.org/2000/svg" viewBox="0 0 662.79 220.58">
    <path d="m221.03,135.72c1.41-.43,2.81-.93,4.24-1.29,4.27-1.07,8.55-2.08,12.84-3.11,2.97-.71,5.93-1.46,8.92-2.06,2.44-.49,4.94-.69,7.37-1.2,1.93-.4,3.79-1.16,5.71-1.58,1.06-.23,2.22.02,3.29-.18,2.53-.46,5.02-1.1,7.54-1.59,2.2-.43,4.44-.7,6.64-1.15,2.11-.43,4.19-1.05,6.3-1.49,1.44-.3,2.92-.38,4.36-.65.82-.15,1.59-.57,2.41-.74,1.66-.34,3.34-.59,5.01-.9,5.09-.93,10.17-1.89,15.27-2.78.87-.15,1.8.02,2.69-.04.36-.02.7-.34,1.07-.38.98-.13,1.98-.31,2.96-.24.86.06,1.64.51,2.39-.42.28-.35,1.09-.32,1.66-.37,4.14-.37,8.29-.7,12.43-1.11.56-.06,1.05-.59,1.61-.77.67-.21,1.42-.96,2.07.16.1.18.71.12,1.08.07,4.28-.5,8.55-1.04,12.83-1.52,3.44-.38,6.88-.73,10.32-1.03,6.31-.56,12.64-1.03,18.94-1.66,1.26-.13,2.47-.81,3.71-1.24.06.16.11.32.17.48-.48.09-.95.18-1.43.27,0,.07.01.15.02.22,2.25-.13,4.51-.18,6.75-.43.69-.08,1.3-.78,2-1.03.53-.19,1.16-.11,1.83.09-.3.17-.61.35-.91.52.08.05.16.14.23.13,3.55-.19,7.11-.38,10.66-.6,3.24-.2,6.47-.47,9.71-.63,3.2-.16,6.41-.28,9.61-.32,1.42-.02,2.84.28,4.27.33.83.03,1.66-.16,2.81-.29-.5-.35-.69-.48-.88-.62.02-.09.04-.18.06-.27.34.08.8.06,1,.27.87.93,1.67.81,2.58.08.4-.32.98-.64,1.12.32.01.08.3.21.38.17,1.1-.67,2.3.55,3.2.02,2.63-1.55,5.31.33,7.92-.3.27-.07.63.22.95.32.27.08.64.29.8.19,1.97-1.27,5.4-1.23,7.61-.33,1.22.49,2.74.25,4.13.34.4.03.8.16,1.19.12,1.6-.16,3.2-.34,4.79-.57.17-.02.29-.4.47-.34,9.03.9,18.04.23,27.05.44,0-.14,0-.29,0-.43-.19-.06-.37-.12-.61-.19.14-.08.23-.16.31-.16,1.13,0,2.26-.09,3.38.01,1.81.16,3.6.5,5.4.64.75.06,1.53-.18,2.36-.3.01-.08-.02.17-.13,1,.9-.58,1.43-1.16,2.06-1.28.81-.16,1.84-.25,2.5.12,1.65.92,3.65,1.06,5.58.22.56-.25,1.32-.04,2.04-.04-.44.09-.83.16-1.21.24,0,.15,0,.31,0,.46,4.08.22,8.16.45,12.35.68.05-.35.1-.71.2-1.45,1.29,2.39,3.39,1.35,5.06,1.68,2.26.44,4.62.45,6.94.48.74,0,1.47-.61,2.24-.74.77-.13,1.96-.32,2.3.08,1.61,1.89,3.65,1.36,5.66,1.45,4.18.18,8.35.55,12.53.83,3.43.23,6.85.43,10.28.72.87.07,1.71.52,2.58.62,1.19.13,2.39.06,3.59.11.68.03,1.36.1,2.04.2,5.32.75,10.64,1.52,15.96,2.26,1.67.23,3.54-.25,4.79,1.41,3.21-.39,5.87,1.46,8.79,2.22,2.94.76,5.8,1.85,8.68,2.82,1.97.66,1.98.73,1.15,2.14.25,1.03.52,1.81.61,2.61.08.73-1.86,2.1-2.67,1.92-4.79-1.06-9.58-2.17-14.38-3.2-1.82-.39-3.67-.61-5.5-.97-2.5-.49-4.96-1.15-7.47-1.53-2.15-.33-4.35-.31-6.51-.55-2.44-.27-4.86-.68-7.29-1.01-.86-.12-1.73-.25-2.6-.29-1.76-.08-3.52-.05-5.27-.18-2.1-.16-4.18-.44-6.27-.67-2.18-.24-4.35-.56-6.53-.71-2.1-.15-4.21-.17-6.32-.2-1-.02-2.01.19-2.99.08-2.42-.27-4.82-.71-7.24-.97-1.31-.14-2.64,0-3.96-.02-4.02-.07-8.04-.1-12.06-.26-3.08-.12-6.15-.5-9.23-.59-2.74-.08-5.5.13-8.25.13-3.22,0-6.45-.09-9.67-.13-4.05-.05-8.1-.06-12.15-.13-3.35-.05-6.71-.24-10.06-.22-2.96.03-5.92.37-8.88.4-6.8.08-13.61.02-20.41.08-2.64.02-5.27.27-7.9.32-4,.08-8,.08-12,.09-3.7.01-7.4-.12-11.1,0-5.74.19-11.49.49-17.22.82-5.53.32-11.06.65-16.58,1.12-4.77.41-9.52,1.05-14.28,1.52-3.96.39-7.94.66-11.9,1.04-3.65.35-7.29.8-10.93,1.2-3.16.35-6.34.63-9.49,1.06-4.94.68-9.87,1.46-14.79,2.22-4.68.73-9.36,1.46-14.03,2.27-5.66.98-11.3,2.06-16.96,3.07-4.61.82-9.23,1.55-13.83,2.41-5.49,1.02-10.97,2.07-16.43,3.22-7.59,1.6-15.18,3.2-22.73,4.98-8.15,1.92-16.25,4.03-24.36,6.1-3.73.96-7.53,1.78-11.12,3.14-2.27.86-4.2,2.6-6.28,3.96-5.25,3.45-10.5,6.9-15.73,10.39-1.54,1.03-3,2.18-4.51,3.25-4.59,3.24-9.19,6.48-13.79,9.71-4.85,3.4-9.66,6.85-14.57,10.16-3.23,2.18-6.61,4.15-9.91,6.23-1.66,1.05-3.29,2.13-4.95,3.19-8.26,5.29-16.67,10.31-25.58,14.46-4.57,2.13-9.09,4.36-13.65,6.52-2.81,1.33-5.83,1.6-8.89,1.66-3.55.08-7.09.05-10.53-.96-2.75-.8-4.77-2.65-6.31-4.94-.55-.81-.64-2.01-.74-3.05-.37-3.83-.88-7.64.61-11.41.53-1.33.53-2.87.83-4.64-1.22.35-2.14.54-2.99.88-7.72,3.17-15.44,6.33-23.13,9.57-5.43,2.28-10.8,4.7-16.23,6.99-4.78,2.02-9.79,3.02-14.96,2.61-2.23-.18-4.41-1.04-6.6-1.63-1-.27-.99-.99-.92-1.9.23-3.23,2.14-5.48,4.3-7.54,4.71-4.5,9.34-9.1,14.29-13.34,6.17-5.28,12.59-10.28,18.96-15.32,2.37-1.87,4.98-3.44,7.37-5.29,3.69-2.85,7.29-5.83,10.95-8.73,1.28-1.02,2.61-1.98,3.96-2.9,3.33-2.26,6.71-4.46,10.03-6.73,4.33-2.96,8.62-5.96,12.93-8.95,3.23-2.25,6.43-4.54,9.68-6.75,3.18-2.16,6.53-4.07,9.56-6.41,1.9-1.47,3.32-3.57,5-5.34,1.27-1.34,2.63-2.6,3.95-3.9.27-.26.63-.5.75-.82.76-2.16,2.54-3.49,4-5.09,1.19-1.3,2.24-2.72,3.39-4.04,1.75-2,3.51-4,5.32-5.95,3.55-3.84,7.1-7.69,10.73-11.46,3.31-3.44,6.69-6.82,10.11-10.14,1.66-1.6,3.57-2.94,5.24-4.53,1.27-1.21,2.27-2.7,3.52-3.94,1.13-1.12,2.48-2.04,3.65-3.12.72-.67,1.23-1.58,1.98-2.22,2.49-2.13,5.04-4.18,7.57-6.26,4.04-3.32,8.02-6.7,12.13-9.93,3.25-2.56,6.61-4.99,10.01-7.36,1.72-1.2,3.53-2.45,5.49-3.07,1.69-.54,3.7-.51,5.47-.2,2.53.45,2.24.66,2.2,3.37-.06,4.45-1.35,8.49-3.59,12.21-1.14,1.9-2.9,3.42-4.08,5.3-3.07,4.9-6.72,9.29-10.8,13.39-2.42,2.44-4.42,5.29-6.77,8.14.62-.24,1.1-.37,1.53-.6,3.29-1.79,6.57-3.6,9.86-5.4,4-2.18,7.95-4.47,12.03-6.5,4.08-2.03,8.31-3.75,12.42-5.72,3.35-1.61,6.58-3.45,9.92-5.08,4.94-2.42,9.94-4.73,14.89-7.13,2.83-1.37,5.55-2.95,8.42-4.22,5.34-2.36,10.77-4.5,16.12-6.83,4.28-1.86,8.44-4.02,12.75-5.78,6.07-2.48,12.22-4.77,18.37-7.05,5.65-2.09,11.28-4.26,17.03-6.03,9.16-2.82,18.39-5.43,27.65-7.95,2.94-.8,6.02-1.15,9.06-1.46,2.84-.29,5.72-.25,8.58-.37.26-.01.51-.05.77-.08-.48-.62.2-.55.33-.43,1.57,1.49,3.75,1.11,5.59,1.79,1.68.62,2.25,1.71,2.43,3.21.51,4.22-.79,7.77-3.59,11.05-4.09,4.79-9.03,8.62-13.66,12.79-3.92,3.53-7.92,6.99-12.04,10.29-5.31,4.27-10.77,8.35-16.16,12.51-2.78,2.14-5.53,4.33-8.37,6.4-3.3,2.41-6.71,4.66-10,7.07-3.69,2.7-7.25,5.58-10.97,8.23-3.9,2.78-7.94,5.37-11.91,8.06-3.13,2.12-6.24,4.26-9.36,6.4-4.22,2.9-8.45,5.78-12.65,8.71-3.28,2.28-6.49,4.67-9.8,6.9-4.71,3.18-9.5,6.23-14.22,9.4-2.64,1.77-5.19,3.68-7.8,5.49-1.21.84-2.47,1.62-3.71,2.42.07.16.13.32.2.47Zm-143.66,45.43c.13.12.25.24.38.35,2.13-.83,4.26-1.7,6.4-2.49,8.28-3.05,16.57-6.09,24.86-9.12,6.55-2.39,13.08-4.85,19.67-7.13,5.34-1.84,10.76-3.44,16.13-5.18,7.64-2.48,15.22-5.16,22.91-7.47,8.55-2.57,17.21-4.79,25.79-7.26,1.67-.48,3.29-1.28,4.78-2.19,1.64-1,3.09-2.32,4.67-3.43,3.47-2.45,6.98-4.85,10.46-7.28,3.48-2.43,6.95-4.88,10.44-7.29,1.34-.93,2.75-1.75,4.08-2.69,2.14-1.51,4.23-3.11,6.37-4.62,1.98-1.39,4.02-2.71,6.01-4.08,2.4-1.66,4.77-3.38,7.18-5.01.91-.62,1.99-1.01,2.89-1.64,2.63-1.84,5.18-3.79,7.83-5.6,2.4-1.64,4.91-3.13,7.33-4.74,1.86-1.24,3.63-2.6,5.48-3.84,2.9-1.95,5.86-3.81,8.74-5.79,2.07-1.42,4.21-2.79,6.03-4.49,2.66-2.49,6.47-3.39,8.68-6.45.03-.04.1-.05.14-.08,3.33-2.16,6.71-4.25,9.97-6.5,2.86-1.98,5.61-4.13,8.39-6.23,3.37-2.55,6.74-5.11,10.07-7.71,3.34-2.61,6.63-5.27,9.94-7.92,3.1-2.48,6.24-4.91,9.26-7.49,3.31-2.84,6.56-5.76,9.69-8.79,1.96-1.89,3.66-4.05,5.47-6.09-.09-.21-.19-.41-.28-.62-1.12-.17-2.24-.42-3.37-.49-5.29-.29-10.37,1.04-15.45,2.18-9.7,2.18-19.11,5.33-28.48,8.6-9.06,3.16-18.15,6.24-27.08,9.74-7.6,2.98-14.98,6.5-22.45,9.81-6.3,2.8-12.61,5.59-18.87,8.5-7.6,3.53-15.18,7.09-22.7,10.77-7,3.43-13.93,7-20.86,10.57-4.95,2.55-9.89,5.12-14.75,7.82-6.45,3.58-12.85,7.26-19.24,10.97-2.85,1.65-5.75,3.23-7.86,5.95-2.06,2.65-4.34,5.15-6.65,7.58-3.27,3.43-6.65,6.75-10.01,10.09-5.86,5.85-11.72,11.7-17.63,17.5-2.7,2.65-5.5,5.2-8.26,7.79-3.97,3.73-7.89,7.51-11.93,11.17-3.07,2.78-6.21,5.51-9.45,8.08-3.97,3.14-8.12,6.04-12.11,9.16-1.04.81-1.75,2.05-2.61,3.09Zm94.24-22.27c-.06-.1-.12-.21-.18-.31-.25.03-.51.03-.75.1-4.14,1.29-8.29,2.56-12.43,3.88-8.7,2.78-17.42,5.48-26.07,8.4-9.8,3.31-19.54,6.8-29.28,10.29-9.69,3.48-19.34,7.05-29,10.63-.51.19-1.09.72-1.24,1.22-.48,1.61-.81,3.28-1.15,4.93-.72,3.5-1.6,6.97-.8,10.6.25,1.12,2.04,4.16,2.85,4.41,3.11.94,6.24.92,9.39.07-.56-.04-1.11-.08-1.67-.12,2.34-.25,4.66-.6,6.74-1.5,3.37-1.45,6.59-3.25,9.87-4.9,3.95-2,7.9-3.99,11.83-6.01.89-.46,1.68-1.11,2.56-1.57.88-.46,1.9-.68,2.71-1.23,3.74-2.51,7.4-5.15,11.14-7.65,3.74-2.5,7.56-4.86,11.31-7.34,4.26-2.82,8.52-5.63,12.69-8.57,3.11-2.19,6.82-3.58,9.12-6.85.14-.2.47-.24.69-.39,2.64-1.79,5.29-3.57,7.91-5.38,1.26-.87,2.49-1.8,3.73-2.7Zm-82.57-10.98c-.09-.1-.17-.2-.26-.3-4.12,2.82-8.26,5.59-12.34,8.46-5.57,3.92-11.12,7.88-16.62,11.9-4.33,3.16-8.61,6.39-12.84,9.68-4.21,3.27-8.23,6.79-12.51,9.97-7.31,5.43-14.03,11.53-20.54,17.87-.73.71-1.95,1.33-1.66,2.87,2.17-.76,4.27-1.36,6.25-2.21,7.22-3.11,14.37-6.38,21.59-9.47,6.46-2.76,12.98-5.39,19.51-8.01,2.73-1.09,5.31-2.51,7.49-4.38,1.56-1.34,2.67-3.31,3.67-5.17,1.73-3.19,3.07-6.59,4.83-9.75,2.2-3.95,4.63-7.77,7.03-11.6,2.08-3.31,4.25-6.57,6.38-9.85Zm34.1-31.75c.1.12.21.25.31.37,3.26-1.95,6.51-3.89,9.77-5.84,4.78-2.86,9.62-5.62,14.33-8.6,2.55-1.61,4.97-3.46,7.27-5.41,2.47-2.1,4.73-4.44,7.09-6.68,1.29-1.23,2.67-2.37,3.87-3.68,1.38-1.51,2.55-3.22,3.91-4.75,1.29-1.46,2.79-2.7,3.86-4.39,1.05-1.66,2.35-3.16,3.6-4.68,3.14-3.84,6.39-7.59,9.44-11.48,2-2.55,3.75-5.3,5.81-8.25-26.15,18.12-48.11,40.31-69.25,63.4Zm12.04,1.6c-.06-.08-.12-.16-.18-.23-.17.08-.35.13-.51.23-6.97,4.42-13.95,8.81-20.89,13.27-3.05,1.96-6.25,3.71-8.52,6.69-1.52,1.99-3.2,3.87-4.67,5.89-2.36,3.22-4.67,6.49-6.9,9.8-2.54,3.78-4.99,7.62-7.45,11.46-.47.74-.81,1.58-1.2,2.37.55,0,.83-.15,1.06-.36,3.92-3.67,7.87-7.31,11.73-11.03,3.64-3.51,7.2-7.11,10.79-10.68,4.02-4,8.03-8.02,12.06-12.01,3.07-3.05,6.16-6.08,9.26-9.1.66-.64,1.51-1.11,2.1-1.81.53-.62.75-1.49,1.25-2.14.62-.83,1.38-1.56,2.08-2.34Z"/>
    <path d="m606.47,63.02c-.21.39-.41.75-.7,1.28-.6-.44-1.12-.82-1.66-1.21-.59.97-1.32,1.45-2.61,1.32-.99-.1-2.08.31-3.07.66-1.06.37-2.04.95-3.08,1.37-.48.19-1.03.32-1.55.3-1.27-.05-2.54-.32-3.8-.26-1.09.05-2.16.43-3.25.67.04.16.1.43.19.8-4.39-1.73-7.92,1.32-12.04,1.97.26-.41.37-.57.54-.85h-1.67c.08.31.15.59.28,1.07h-4.97c0,.07,0,.15,0,.22.33.06.66.12.99.18,0,.14,0,.27,0,.41h-5.92c.03.28.06.6.1.92-.27-.15-.53-.4-.82-.44-.59-.09-1.21-.15-1.79-.05-.21.04-.34.57-.62,1.11-.69-.11-1.79,1.37-2.76-.42-.19.43-.34.78-.49,1.12-.07.02-.15.06-.18.04-2.29-1.91-4.35.04-6.47.44-6.13,1.16-12.23,2.47-18.34,3.71-1.28.26-2.58.47-3.86.76-1.05.24-2.39-.03-2.87,1.47-.02.07-1.19,1.04-2.25.08-.61-.55-2.23-.14-3.36.06-1.73.32-3.42.84-5.05,1.26v1.15c-.31-.08-.62-.18-.93-.24-.64-.12-1.29-.3-1.93-.29-1.02.02-2.03.16-3.04.29-.67.09-1.35.2-2,.38-3.75,1.07-7.49,2.2-11.25,3.24-2.39.66-4.82,1.18-7.22,1.8-5.52,1.41-11.02,2.88-16.55,4.26-3.77.94-7.57,1.7-11.34,2.63-2.62.64-5.17,1.74-7.82,2.05-3.5.42-6.67,2.19-10.12,2.35-2.62.12-4.71,1.66-7.22,1.83-1.54.1-3.11.05-4.63.29-1.24.19-2.47.62-3.64,1.09-2.77,1.13-5.65-.33-8.46.44-1.47.4-3.36-.18-4.55.53-1.43.85-2.25.42-3.43-.1-.42-.18-1.11.33-1.69.44-.24.05-.54-.09-.78-.2-.17-.07-.33-.38-.42-.35-1.98.6-3.61-.83-5.22-1.35-1.41-.46-2.19-2.91-3.21-4.51-.19-.29-.07-.78-.25-1.08-2.51-4.04.36-7.11,2-10.3.86-1.67,2.36-3,3.8-4.77-.89.41-1.5.67-2.1.96-6.11,2.96-12.23,5.9-18.32,8.89-6.1,2.99-12.27,5.86-18.23,9.1-3.76,2.04-7.67,3.7-11.53,5.49-2.29,1.06-4.73,1.82-7.14,2.63-1.89.63-4.07-.86-4.51-3.38-1.58.7-3.17,1.22-4.54,2.07-.92.57-2.27.61-2.69,2.17-.14.49-2.16.35-3.24.72-3.83,1.33-7.59,3.16-11.72,2.86-1.86-.13-4.06-.22-5.58-1.91-2.03.98-4.15,2.04-6.3,3.04-1.36.63-2.76,1.19-4.14,1.77-.05.02-.13.06-.15.04-1.06-.86-2.24-.41-3.41-.36-.54.02-1.1-.27-1.6-.4-.38-.78-.69-1.7-1.22-2.45-.97-1.35-.46-2.48.27-3.68,1.64-2.67,3.7-4.93,6.15-6.88,2.58-2.04,4.88-4.53,7.67-6.2,5.23-3.14,10.6-6.13,16.66-7.49.28-.06.57-.11.91.12l-1.24.22c1.28.62,2.44.46,3.62-.37,3.82-2.7,7.59-5.49,11.55-7.97,4.87-3.04,9.83-5.96,14.92-8.6,1.7-.88,3.93-.8,5.93-.96.37-.03.81.92,1.26,1.47-.46.19-.74.29-1.24.49,1.07.98,2.04,2.04.84,3.34-.87.94-1.89,1.78-2.93,2.52-.76.54-1.79.73-2.51,1.32-3.27,2.66-7.35,4.01-10.52,6.91-2.28,2.09-5.2,3.47-7.71,5.33-3.08,2.28-5.99,4.79-9.08,7.06-2.06,1.52-4.3,2.81-6.46,4.21-.3.2-.56.46-.83.7l.21.47c1.45-.6,2.93-1.13,4.33-1.83,5.43-2.7,10.91-5.33,16.22-8.25,3.77-2.07,7.38-4.45,10.92-6.89,6.3-4.36,13.06-7.87,19.9-11.26,4.61-2.29,9.05-4.95,13.71-7.13,6.73-3.14,13.54-6.11,20.42-8.92,1.86-.76,4.05-.74,6.11-.89.28-.02,1.01,1.4.89,1.53-.95,1,0,1.08.55,1.38-.65.95-1.29,1.89-1.99,2.92.41-.07.7-.12,1-.17.09.12.18.24.27.35-.4.23-.81.46-1.21.69.08.11.15.21.23.32,2.14-1.2,4.19-2.62,6.43-3.56,5.03-2.1,8.74-6.04,13.13-9.03,4.79-3.26,9.63-6.46,14.46-9.65,1.91-1.26,3.87-2.45,5.81-3.68-.24-.27-.46-.52-.41-.47-2.37.53-4.54,1.05-6.73,1.48-1.62.32-3.26.54-4.9.73-.83.09-1.69-.05-2.52.03-.47.05-.9.4-1.37.49-1.03.2-2.08.29-3.11.48-1.23.24-2.43.59-3.66.81-1.71.29-3.45.45-5.16.76-2.05.38-4.09.86-5.96,1.26-.02,0,.23.07.89.29-2.42.26-4.6.13-6.48.82-1.38.51-2.7,1.16-4.16,1.06-2.56-.16-4.71,1.22-7.1,1.66-3.02.55-6.1.79-9.09,1.44-4.69,1.03-9.32,2.32-13.98,3.43-1.04.25-2.16.14-3.21.35-.83.17-1.58.73-2.41.89-3.13.61-6.28,1.07-9.4,1.69-2.45.49-4.87,1.16-7.32,1.68-.41.09-.9-.25-1.35-.27-.54-.03-1.12-.04-1.63.11-1.26.39-2.73,1.55-3.69,1.21-2.34-.83-4.42.48-6.64.21-1.31-.16-2.7.41-4.06.53-.99.09-2,.04-2.99-.07-.22-.02-.61-.72-.54-.81.44-.59.9-1.32,1.54-1.59.85-.36,1.88-.27,2.8-.5,3.72-.92,7.43-1.87,11.13-2.85,4.61-1.23,9.2-2.53,13.81-3.74,1.85-.48,3.76-.7,5.6-1.22,2.1-.6,4.14-1.42,6.22-2.11,1.16-.39,2.31-1.33,3.56-.16.09.08.36.14.4.09,1.51-1.9,3.73-.87,5.56-1.4,1.18-.34,2.27-.99,3.43-1.45,1.2-.47,2.39-1.08,3.74-.38.17.09.48-.09.72-.17.78-.28,1.55-.58,2.5-.94,0,.06-.02-.25-.04-.66,2.09.27,4.04.43,5.61-1.16.17-.17.56-.38.69-.3,1.58.96,2.6-.99,4.27-.71,1.48.24,3.18-.96,4.8-1.49.91-.3,1.71-.48,2.82-.26,1.08.22,2.38-.9,3.65-1.21,1.06-.26,2.19-.19,3.41-.28.23-1.59,2.06-1.17,3.28-1.5,3.02-.8,6.12-1.34,9.19-1.96,2.38-.49,4.76-.94,7.14-1.42.83-.17,1.65-.36,2.47-.55.42-.1.82-.3,1.24-.34,4.4-.4,8.64-1.67,12.99-2.33,4.49-.68,8.95-1.75,13.46-2.01,5.97-.34,10.78-3.29,15.84-5.86,5.78-2.93,11.63-5.74,17.43-8.64,5.38-2.69,10.69-5.52,16.1-8.12,2.98-1.43,6.06-2.76,9.23-3.7,2.07-.62,4.37-.5,6.57-.62.4-.02.97.27,1.21.6,1.6,2.19,1.08,5.71-1.02,7.45-2.55,2.11-5.07,4.27-7.66,6.33-.66.53-1.54.8-2.32,1.18-.14.07-.38.07-.44.17-1.54,3.02-5.6,1.66-7.3,4.59.4.12.98.48,1.54.45,3.16-.2,6.32-.46,9.47-.77,2.33-.23,4.64-.68,6.97-.86,1.76-.13,3.55.08,5.32.02.59-.02,1.15-.52,1.76-.63.86-.16,1.75-.18,2.63-.24,8.43-.54,16.85-1.14,25.28-1.59,6.03-.32,12.08-.43,18.12-.68,3.27-.14,6.52-.51,9.79-.55,4.18-.05,8.37.19,12.55.18,4.81-.01,9.63-.17,14.44-.24,2.24-.03,4.49,0,6.89,0-.17.18-.29.31-.5.53.28.07.59.24.72.16,1.87-1.18,3.9-.78,5.91-.7.64.02,1.34.15,1.91-.05,1.02-.36,1.69.07,2.43.63.23.18.63.12.96.17.21-1.51,1.42-1.05,2.27-1.03.93.01,1.85.4,2.79.48.7.06,1.53-.36,2.11-.12,1.51.64,2.96,1.45,4.36,2.33.82.51.84,1.21-.3,1.65.42.3.68.5,1.1.8-1.37.63-2.59,1.19-3.81,1.75.04.03.09.06.13.08-.9.22-1.8.44-2.7.65,0,.11,0,.22,0,.34,1.01.11,2.03.22,3.31.36-5.07,2.01-10.09,1.42-15.03,1.64-2.01.09-4.02.02-5.92.02-.03.02.1-.08.46-.36-1.38.24-2.52.46-3.67.64-.78.12-1.57.26-2.36.28-6.58.13-13.17.13-19.75.37-8.57.31-17.13.82-25.69,1.23-5.02.24-10.05.4-15.07.69-6.25.36-12.49.83-18.73,1.24-3.52.23-7.05.39-10.57.68-5.7.48-11.39,1.04-17.08,1.57-4.78.44-9.57.87-14.34,1.35-5.14.52-10.27,1.06-15.4,1.68-.98.12-1.91.64-2.93,1,.12-.18.24-.36.36-.55-.07-.13-.14-.27-.2-.4-3.18,1.7-6.36,3.39-9.54,5.09.03.07.06.15.09.22.29-.07.57-.14.86-.2.04.08.09.15.13.23l-2.87,1.6c-.11-.12-.22-.24-.33-.36.4-.17.81-.34,1.33-.56-.38-.2-.48-.29-.52-.27-3.12,1.58-6.24,3.18-9.36,4.77-.8.41-1.65.77-2.37,1.29-.63.45-1.06,1.19-1.7,1.64-1.27.88-2.61,1.65-3.94,2.43-.31.18-.7.21-1.04.34-.58.24-1.29.37-1.7.79-.64.65-1.01,1.26-2.21,1.05-.64-.11-1.52.91-2.21,1.51-1.27,1.12-2.37,2.27-4.35,2.35-1.21.04-2.4,1.02-3.58,1.62-3.27,1.66-6.55,3.29-9.77,5.03-1.86,1-3.6,2.21-5.43,3.27-.57.33-1.34.36-1.88.73-2.28,1.57-4.63,3.08-6.74,4.86-3.86,3.25-7.58,6.65-11.32,10.03-.45.41-.65,1.09-1.04,1.59-.62.78-1.33,1.49-1.96,2.27-1.36,1.67-2.78,3.31-4.01,5.07-.67.95.02,2.36,1.19,2.44,2.95.21,5.91.31,8.87.33,1.9.01,3.81-.11,5.69-.35,2.4-.31,4.78-.79,7.16-1.21,3.07-.55,6.15-1.01,9.18-1.71,2.71-.62,5.36-1.51,8.05-2.27,2.86-.81,5.69-1.95,8.61-2.27,1.7-.19,3.08-.88,4.63-1.27,1.35-.34,2.78-.34,4.14-.65.84-.19,1.6-.71,2.41-1.04.56-.23,1.02-.71,1.76,0,.29.27,1.48-.27,2.18-.62,1.17-.58,2.21-1.53,3.67-.89.12.05.31-.04.46-.09,2.42-.77,4.83-1.61,7.27-2.31,3.52-1.02,7.02-2.28,10.62-2.82,3.29-.48,6.45-1.12,9.56-2.29,1.62-.61,3.51-.47,5.23-.87,1.68-.39,3.28-1.14,4.96-1.54,1.9-.45,3.87-.57,5.76-1.03,2.85-.69,5.65-1.59,8.49-2.34,1.35-.35,2.73-.55,4.09-.84,1.51-.33,3-.77,4.52-1.04,2.7-.49,5.41-.87,8.12-1.33.66-.11,1.3-.34,1.96-.49,3.27-.76,6.53-1.51,9.8-2.26,3.92-.9,7.83-1.85,11.77-2.68,2.75-.58,5.54-.97,8.31-1.46,3.08-.55,6.14-1.22,9.23-1.69,2.79-.43,5.62-.57,8.41-1.01,1.45-.22,2.81-.96,4.26-1.19,2.79-.44,5.63-.6,8.42-1.04,3.87-.61,7.73-1.33,11.58-2.1,4.18-.84,8.34-1.78,12.51-2.71.74-.16,1.43-.56,2.16-.72,2.2-.51,4.43-.91,6.63-1.45.82-.2,1.58-.64,2.36-.98.24-.1.59-.38.71-.3,1.7,1.11,3.19-.51,4.76-.34,1.02.11,2.03.7,2.95,1.24.17.1-.1.95-.37,1.46,0,1.71,1.28.82,2.2.9-.59,1.08-1.13,2.06-1.88,3.43.2.76-.99,2.23-2.81,2.48-1.6.22-2.86.92-4.17,1.82-.91.63-2.21.7-3.35.97-3.77.89-7.55,1.78-11.33,2.64-1.57.36-3.15.67-4.73.95-.94.16-1.94.88-2.86-.12-.01-.01-.42.46-.69.54-.77.23-1.99.78-2.27.49-1-1.06-1.83-.15-2.47.12-2.19.94-4.39,1.68-6.8,1.64-.91-.02-1.81,0-2.76,0Zm-296.63,42.39c4.57-2.78,9.54-5.05,12.75-9.85-5.42,2-9.13,5.88-12.75,9.85Z"/>
    <path d="m377.99,109.59c-2.58.18-5.16.37-7.74.55l-.02-.31,7.69-.69c.02.15.05.3.07.45Z"/>
</svg>